<svg width="20" height="20" viewBox="0 0 20 20" fill="none" xmlns="http://www.w3.org/2000/svg">
<circle cx="10" cy="10" r="9.9" fill="white" stroke="#128041" stroke-width="0.2"/>
<path d="M9.47293 6.05371H5.99398C5.73036 6.05371 5.47754 6.15844 5.29113 6.34485C5.10472 6.53126 5 6.78409 5 7.04772V14.0058C5 14.2694 5.10472 14.5223 5.29113 14.7087C5.47754 14.8951 5.73036 14.9998 5.99398 14.9998H12.9519C13.2155 14.9998 13.4683 14.8951 13.6547 14.7087C13.8411 14.5223 13.9459 14.2694 13.9459 14.0058V10.5268" stroke="#128041" stroke-width="0.5" stroke-linecap="round" stroke-linejoin="round"/>
<path d="M13.2002 5.3088C13.3979 5.11108 13.6661 5 13.9457 5C14.2253 5 14.4935 5.11108 14.6912 5.3088C14.8889 5.50652 15 5.77469 15 6.05431C15 6.33393 14.8889 6.6021 14.6912 6.79982L9.96978 11.5214L7.98181 12.0184L8.4788 10.0304L13.2002 5.3088Z" stroke="#128041" stroke-width="0.5" stroke-linecap="round" stroke-linejoin="round"/>
</svg>
